#N canvas 178 576 919 383 10;
#X msg 79 76 audio-setapi 1;
#X msg 96 99 audio-dialog 4 0 0 0 2 0 0 0 4 0 0 0 2 0 0 0 48000 25
-1 64;
#X obj 96 121 s pd;
#X msg 233 169 \; pd dsp 1;
#X obj 346 137 del 10;
#X msg 346 159 \; pd quit;
#X obj 556 153 tabwrite~ \$0-scope;
#X msg 612 129 bang;
#X obj 244 66 t b f;
#X msg 247 20 10;
#X floatatom 247 42 5 0 0 0 - - -;
#X msg 293 26 1;
#X obj 109 229 adc~;
#X obj 109 251 env~;
#X floatatom 109 273 5 0 0 0 - - -;
#X obj 156 247 env~;
#X floatatom 156 269 5 0 0 0 - - -;
#X obj 596 44 table \$0-scope 16;
#X obj 645 234 tabread \$0-scope;
#X floatatom 645 256 5 0 0 0 - - -;
#X floatatom 646 213 5 0 0 0 - - -;
#X obj 458 265 dac~;
#X msg 380 42 bang;
#X obj 380 64 t b b;
#X obj 221 130 del 100;
#X msg 714 82 bang;
#X obj 714 104 t b b;
#X msg 715 144 vis 1;
#X obj 715 166 s pd-\$0-scope;
#X obj 542 61 tgl 15 0 empty empty empty 17 7 0 10 -262144 -1 -1 1
1;
#X obj 564 87 metro 200;
#X obj 788 18 loadbang;
#X obj 788 40 del 1000;
#X obj 788 62 t b b;
#X msg 842 62 bang;
#X obj 565 182 print~;
#X msg 620 185 bang;
#X obj 559 131 adc~ 1;
#X text 712 298 (int)100 = 0.003052;
#X text 714 314 (int)200 = 0.006104;
#X floatatom 456 220 5 0 0 0 - - -;
#X msg 256 247 2 15;
#X obj 256 269 pow;
#X floatatom 256 291 5 0 0 0 - - -;
#X obj 516 241 osc~ 440;
#X connect 0 0 2 0;
#X connect 1 0 2 0;
#X connect 4 0 5 0;
#X connect 7 0 6 0;
#X connect 8 0 1 0;
#X connect 8 1 4 0;
#X connect 9 0 10 0;
#X connect 10 0 8 0;
#X connect 11 0 10 0;
#X connect 12 0 13 0;
#X connect 12 1 15 0;
#X connect 13 0 14 0;
#X connect 15 0 16 0;
#X connect 18 0 19 0;
#X connect 20 0 18 0;
#X connect 22 0 23 0;
#X connect 23 0 24 0;
#X connect 23 1 1 0;
#X connect 24 0 3 0;
#X connect 25 0 26 0;
#X connect 26 0 27 0;
#X connect 26 1 29 0;
#X connect 27 0 28 0;
#X connect 29 0 30 0;
#X connect 30 0 7 0;
#X connect 31 0 32 0;
#X connect 32 0 33 0;
#X connect 33 0 22 0;
#X connect 33 1 25 0;
#X connect 34 0 33 0;
#X connect 36 0 35 0;
#X connect 37 0 6 0;
#X connect 37 0 35 0;
#X connect 40 0 21 0;
#X connect 41 0 42 0;
#X connect 42 0 43 0;
#X connect 44 0 21 0;
